<?xml version="1.0" encoding="utf-8"?>
<!-- Generator: Adobe Illustrator 19.2.1, SVG Export Plug-In . SVG Version: 6.00 Build 0)  -->
<svg version="1.1" id="Layer_1" xmlns="http://www.w3.org/2000/svg" xmlns:xlink="http://www.w3.org/1999/xlink" x="0px" y="0px"
	 width="905.8px" height="944px" viewBox="0 0 905.8 944" style="enable-background:new 0 0 905.8 944;" xml:space="preserve">
<style type="text/css">
	.st0{opacity:0.5;}
	.st1{fill:url(#SVGID_1_);}
	.st2{fill:url(#SVGID_2_);}
	.st3{opacity:0.25;fill:#293B4D;}
	.st4{fill:#98A8B3;}
	.st5{fill:url(#SVGID_3_);}
	.st6{fill:#FFCB8B;}
	.st7{fill:#EFF1F3;}
	.st8{fill:#C3D1D8;}
	.st9{fill:#212C35;}
	.st10{fill:#1C262D;}
	.st11{fill:#151E23;}
	.st12{fill:#EA4B35;}
	.st13{fill:#28323C;}
	.st14{fill:#292B2A;}
	.st15{fill:#0C0C0C;}
	.st16{fill:#E5B380;}
	.st17{opacity:0.5;fill:#FF8469;}
	.st18{fill:#7F6349;}
	.st19{fill:#A9C6D3;}
</style>
<g>
	<g class="st0">
		<linearGradient id="SVGID_1_" gradientUnits="userSpaceOnUse" x1="185.5107" y1="943.4411" x2="185.5107" y2="296.0849">
			<stop  offset="0" style="stop-color:#374F66;stop-opacity:0"/>
			<stop  offset="0.5" style="stop-color:#374F66"/>
		</linearGradient>
		<polygon class="st1" points="305.5,943.4 305.5,872.2 351,871.8 351,871.2 305.5,870.8 305.5,835.9 351,835.1 351,834.1 
			305.5,833.3 305.5,807.4 344.6,807 344.6,805.2 305.5,804.7 305.5,757.5 317.2,757.5 317.2,722.5 344.6,722.1 344.6,720.3 
			317.2,719.9 317.2,685.4 342.8,685.2 317.2,685 317.2,644.8 317.2,617.3 344.6,617.3 344.6,607.5 344.6,597.5 338.2,597.5 
			338.2,577.9 344.6,577.9 344.6,568.1 357.4,568.1 357.4,563.2 335,563.2 335,553.3 344.6,553.3 344.6,543.5 331.8,543.5 
			331.8,538.6 344.6,538.6 344.6,533.7 331.8,533.7 331.8,528.8 338.2,528.8 338.2,509.7 344.6,509.7 344.6,499.9 357.4,499.9 
			357.4,495 344.6,495 344.6,490.1 331.8,490.1 331.8,485.2 335,485.2 335,464.3 341.4,464.3 341.4,459.3 338.2,459.3 338.2,449.4 
			331.8,449.4 331.8,439.3 341.4,439.3 341.4,434.4 344.6,434.4 344.6,429.5 331.8,429.5 331.8,424.6 335,424.6 335,414.6 
			344.6,414.6 344.6,404.9 331.8,404.9 331.8,399.9 344.6,399.9 344.6,390.2 357.4,390.2 357.4,385.3 338.2,385.3 338.2,366.2 
			344.6,366.2 344.6,356.2 338.2,356.2 338.2,336.6 344.6,336.6 344.6,326.8 357.4,326.8 357.4,321.9 335,321.9 335,301 341.4,301 
			341.4,296.1 140.1,296.1 140.1,301 133.7,301 133.7,321.9 156,321.9 156,326.8 143.3,326.8 143.3,336.6 136.9,336.6 136.9,356.2 
			143.3,356.2 143.3,366.2 136.9,366.2 136.9,385.3 156,385.3 156,390.2 143.3,390.2 143.3,399.9 130.5,399.9 130.5,404.9 
			143.3,404.9 143.3,414.6 133.7,414.6 133.7,424.6 130.5,424.6 130.5,429.5 143.3,429.5 143.3,434.4 140.1,434.4 140.1,439.3 
			130.5,439.3 130.5,449.4 136.9,449.4 136.9,459.3 140.1,459.3 140.1,464.3 133.7,464.3 133.7,485.2 130.5,485.2 130.5,490.1 
			143.3,490.1 143.3,495 156,495 156,499.9 143.3,499.9 143.3,509.7 136.9,509.7 136.9,519.4 26.5,519.4 26.5,521 36.1,521 
			36.1,533.3 13.6,533.3 13.6,539.4 26.5,539.4 26.5,551.5 32.9,551.5 32.9,575.9 26.5,575.9 26.5,600.5 20.1,600.5 20.1,624.9 
			26.5,624.9 26.5,637 39.4,637 39.4,643.1 143.3,643.1 143.3,643.1 16.8,643.1 16.8,655.4 26.5,655.4 26.5,667.5 13.6,667.5 
			13.6,673.6 26.5,673.6 26.5,679.7 13.6,679.7 13.6,685.8 20.1,685.8 20.1,709.4 26.5,709.4 26.5,721.5 39.4,721.5 39.4,727.6 
			26.5,727.6 26.5,733.7 13.6,733.7 13.6,739.8 16.8,739.8 16.8,765.7 23.3,765.7 23.3,771.8 20.1,771.8 20.1,784.1 13.6,784.1 
			13.6,796.7 23.3,796.7 23.3,802.7 26.5,802.7 26.5,808.8 13.6,808.8 13.6,814.9 16.8,814.9 16.8,827.2 26.5,827.2 26.5,839.3 
			13.6,839.3 13.6,845.4 26.5,845.4 26.5,857.5 39.4,857.5 39.4,863.6 20.1,863.6 20.1,887.3 26.5,887.3 26.5,899.6 20.1,899.6 
			20.1,924 26.5,924 26.5,936.1 39.4,936.1 39.4,942.2 16.8,942.2 16.8,942.7 156,942.7 156,943.4 		"/>
		<linearGradient id="SVGID_2_" gradientUnits="userSpaceOnUse" x1="708.9036" y1="943.4411" x2="708.9036" y2="375.2988">
			<stop  offset="0" style="stop-color:#374F66;stop-opacity:0"/>
			<stop  offset="0.5" style="stop-color:#374F66"/>
		</linearGradient>
		<path class="st2" d="M905.7,676.3v-4.9H893v-9.8h9.6v-9.9h-22.4v-4.9H893v-9.8h6.4v-19.7H893v-19.9h-6.4v-9.3H727.7v-13h6.4v-24.4
			h-6.4v-12.1h-12.9v-6.1h22.5v-12.3h-9.7v-12.1h12.9v-6.1h-12.9v-6.1h12.9V490h-6.4v-23.7h-6.4v-12.1h-12.9v-6.1h12.9v-6.1h12.9
			V436h-3.2v-25.9h-6.4V404h3.2v-12.3h6.4v-12.5h-9.7v-3.8H528.2v3.8h9.7v12.5h-6.4V404h-3.2v6.1h6.4V436h3.2v6.1h-12.9v6.1h-12.9
			v6.1h12.9v12.1h6.4V490h6.4v6.1h-12.9v6.1h12.9v6.1h-12.9v12.1h9.7v12.3h-22.5v6.1h12.9v12.1h6.4v24.4h-6.4v24.6h-6.4v17.4h55.4
			v25.1h117.7v0H573.9v2.3v19.7l-49,0.6v1.5l49,0.6V693l-55.4,1v0.6l55.4,1v34.9l-49,0.5v0.5l49,0.5v25.5h-9
			c10.8,12.9,18.3,27.7,21.9,43.5l1,4.4h-25.5v19.7l-25.5,0.2l25.5,0.2v22.2v5.1v7.3l-24.4,0.3v1.9l24.4,0.3V942h142.2v1.5h201.4
			v-4.9H893v-9.8h9.6v-9.9h-6.4v-4.9h6.4V893h-22.4v-4.9H893v-9.8h6.4v-19.7H893v-9.9h6.4v-19.1h-19.2v-4.9H893V815h12.8v-4.9H893
			v-9.8h9.6v-9.9h3.2v-4.9H893v-4.9h3.2v-4.9h9.6v-10.1h-6.4v-9.9h-3.2v-4.9h6.4v-20.9h3.2v-4.9H893v-4.9h-12.8V715H893v-9.8h6.4
			v-19.1h6.4v-4.9H893v-4.9H905.7z"/>
	</g>
	<path class="st3" d="M274,364.1l-6.3,25.7v0c-17.9,12.1-40.9,13.5-60.3,3.9l-7.5-3.7l14.6-35.3l0,0c12.1,16.6,34.5,22,52.9,12.8
		L274,364.1z"/>
	<path class="st4" d="M589.1,656L566,696.5l0,0c8.2,37.2,35.8,67,72.2,78.1l14.1,4.3l24.3-62.8h0c-35.6,6.4-70.7-13.8-83.1-47.8
		L589.1,656z"/>
	<path class="st3" d="M749.9,224.7l34.1-65.3h0c48,9.7,82,52.5,80.7,101.5l-0.2,6.6l-30,38.6l-1.8-13.2
		C827.3,251.9,791.1,222.1,749.9,224.7L749.9,224.7z"/>
	<path class="st3" d="M213.4,563.7l42.9,22.1l-3,5.1c-20.4,34.2-58.7,53.6-98.3,50h0l-45.4-38.6l11.9,2.2
		C157.6,611.1,194.1,594.9,213.4,563.7L213.4,563.7z"/>
	<path class="st3" d="M753,470.1l4.8,51.7l0,0c31.3,28.6,75.5,38.2,115.8,25.1l15.6-5.1l-18-72.8v0c-28.4,28.6-73.3,32.6-106.3,9.4
		L753,470.1z"/>
	<g>
		<linearGradient id="SVGID_3_" gradientUnits="userSpaceOnUse" x1="446.6104" y1="943.9887" x2="446.6104" y2="617.2997">
			<stop  offset="0.5" style="stop-color:#E8F7ED;stop-opacity:0"/>
			<stop  offset="1" style="stop-color:#E8F7ED"/>
		</linearGradient>
		<path class="st5" d="M562.2,805.5h25.5l-1-4.4c-3.5-15.8-11-30.6-21.9-43.5h9V732l-72.8-0.7l72.8-0.7v-34.9l-70.7-1.3l70.7-1.3
			v-25.8l-74.8-0.9l-37.1-0.4l40.3-0.5l71.5-0.9v-19.7v-27.5h-74.3H391.5h-74.3v27.5V685l25.5,0.2l-25.5,0.2v34.5l95,1.3l-95,1.3
			v35.1h-11.7v47.2l111.9,1.3l-111.9,1.3v25.8l70.7,1.3l-70.7,1.3v34.9l72.8,0.7l-72.8,0.7V944h256.7v-81.3l-95-1.3l95-1.3v-7.3
			v-5.1v-22.2l-25.5-0.2l25.5-0.2V805.5z"/>
		<g>
			<path class="st6" d="M141.4,350.1c0.4,0.9,2.1,3.3,3.8,5.2c1.7,1.9,4.9,5.4,7.3,7.6c2.3,2.3,4.5,4.4,4.7,4.9
				c0.3,0.4,1.3,2.5,2.3,4.6c1,2.1,2.8,5.4,4.1,7.3c1.3,1.9,4.9,5.3,8,7.4c3.1,2.1,8.9,6,12.9,8.5c4,2.6,7.5,4.6,7.7,4.5
				c0.2-0.1,2.4-1,5.5-2.3c0.3-0.3,0.6-0.5,1-0.8c3.6-2.9,7.1-6.8,7.9-8.6c0.8-1.8,1.2-4.9,1-7c-0.2-1.7-0.7-5-1.4-8
				c-0.3-0.7-0.5-1.4-0.8-2c-1-2.4-1.9-5.5-2.1-7c-0.2-1.5,0.1-4.7,0.5-7.1c0.5-2.4,1.1-5.5,1.5-6.8c0.3-1.3,0-3.2-0.7-4.3
				c-0.7-1-2.4-1.6-3.7-1.3c-1.3,0.3-3.2,1.3-4.2,2.3c-1,0.9-2,2.9-2.3,4.5c-0.3,1.5-0.5,3.9-0.5,5.3c0.1,1.4-0.5,3.3-1.3,4.2
				c-0.8,0.9-2.7,2.1-4.3,2.6c-1.6,0.5-5.1,0.7-7.6,0.4c-2.6-0.3-6.4-1.3-8.5-2.3c-2.1-0.9-4.4-2.5-5.1-3.5c-0.7-1-2.5-4.4-3.8-7.7
				c-1.4-3.3-3.7-7.9-5.3-10.4c-1.5-2.5-3.7-4.7-4.8-4.8c-1.1-0.2-2.5-0.1-3.2,0.2c-0.7,0.3-1.3,1.1-1.5,1.8c-0.2,0.7,0,1.9,0.3,2.7
				c0.3,0.8,0.5,1.5,0.4,1.6c-0.1,0.1-0.5,0.5-0.8,0.8c-0.3,0.3-0.7,1.3-0.7,2.2c-0.1,0.9-0.3,1.7-0.4,1.7c-0.1,0-1-0.2-1.9-0.6
				c-0.9-0.4-2.2-0.5-2.8-0.2c-0.7,0.2-1.4,0.9-1.6,1.5C140.9,347.9,141,349.2,141.4,350.1z"/>
			<path class="st7" d="M199.9,419.5c3.7,3,7.5,5.9,11.4,8.5c0,0,0.1,0.1,0.1,0.1c8.4,5.7,17.1,10.4,26.2,14.3
				c11.5,4.9,23.4,8.3,35.5,10.2c9.9,1.5,19.9,2,29.8,1.5c11.7-0.7,23.3-2.8,34.6-6.4c9.4-3,18.6-7.1,27.4-12.3
				c8.8-5.1,17.1-11.3,25-18.6l-10.9-12.4c-5.7,4.6-11.7,8.6-18.1,11.9c-8.9,4.7-18.3,8-28,10.2c-10.5,2.3-21.2,3.1-31.9,2.5
				c-10-0.6-20-2.5-29.5-5.7c-7.6-2.5-14.8-5.9-21.7-10c-3.3-2-6.5-4.2-9.6-6.6c-4.8-3.7-9.4-7.9-13.6-12.5
				c-0.1-0.1-0.2-0.2-0.3-0.4l-0.7-0.7L199.9,419.5z"/>
			<path class="st8" d="M183,407.1c6.8,10,14.9,19.1,24.1,27.1l1.8,1.6c1.9-3,4-5.9,6.2-8.8c7.5-9.5,16.5-17.6,26.6-24.1
				c0.2-0.1,0.4-0.3,0.6-0.4l0.1,0l-0.2-0.2c-4.5-4.8-9.2-9.3-14.2-13.4c-5-4.2-10.3-8-15.8-11.6c-0.2,0.2-0.3,0.3-0.5,0.5
				c-1.4,1.2-2.7,2.4-4,3.7c-4.5,4.2-8.8,8.4-13,12.7c-4,4.1-7.7,8.3-11.3,12.4C183.3,406.8,183.2,407,183,407.1z"/>
			<path class="st6" d="M752.6,350.1c-0.4,0.9-2.1,3.3-3.8,5.2c-1.7,1.9-4.9,5.4-7.3,7.6c-2.3,2.3-4.5,4.4-4.7,4.9
				c-0.3,0.4-1.3,2.5-2.3,4.6c-1,2.1-2.8,5.4-4.1,7.3c-1.3,1.9-4.9,5.3-8,7.4c-3.1,2.1-8.9,6-12.9,8.5c-4,2.6-7.5,4.6-7.7,4.5
				c-0.2-0.1-2.4-1-5.5-2.3c-0.3-0.3-0.6-0.5-1-0.8c-3.6-2.9-7.1-6.8-7.9-8.6c-0.8-1.8-1.2-4.9-1-7c0.2-1.7,0.7-5,1.4-8
				c0.3-0.7,0.5-1.4,0.8-2c1-2.4,1.9-5.5,2.1-7c0.2-1.5-0.1-4.7-0.5-7.1c-0.5-2.4-1.1-5.5-1.5-6.8c-0.3-1.3,0-3.2,0.7-4.3
				c0.7-1,2.4-1.6,3.7-1.3c1.3,0.3,3.2,1.3,4.2,2.3c1,0.9,2,2.9,2.3,4.5c0.3,1.5,0.5,3.9,0.5,5.3c-0.1,1.4,0.5,3.3,1.3,4.2
				c0.8,0.9,2.7,2.1,4.3,2.6c1.6,0.5,5.1,0.7,7.6,0.4c2.6-0.3,6.4-1.3,8.5-2.3c2.1-0.9,4.4-2.5,5.1-3.5c0.7-1,2.5-4.4,3.8-7.7
				c1.4-3.3,3.7-7.9,5.3-10.4c1.5-2.5,3.7-4.7,4.8-4.8c1.1-0.2,2.5-0.1,3.2,0.2c0.7,0.3,1.3,1.1,1.5,1.8c0.2,0.7,0,1.9-0.3,2.7
				c-0.3,0.8-0.5,1.5-0.4,1.6c0.1,0.1,0.5,0.5,0.8,0.8c0.3,0.3,0.7,1.3,0.7,2.2c0.1,0.9,0.3,1.7,0.4,1.7c0.1,0,1-0.2,1.9-0.6
				c0.9-0.4,2.2-0.5,2.8-0.2c0.7,0.2,1.4,0.9,1.6,1.5C753.1,347.9,753,349.2,752.6,350.1z"/>
			<path class="st8" d="M694.1,419.5c-3.7,3-7.5,5.9-11.4,8.5c0,0-0.1,0.1-0.1,0.1c-8.4,5.7-17.1,10.4-26.2,14.3
				c-11.5,4.9-23.4,8.3-35.5,10.2c-9.9,1.5-19.9,2-29.8,1.5c-11.7-0.7-23.3-2.8-34.6-6.4c-9.4-3-18.6-7.1-27.4-12.3
				c-8.8-5.1-17.1-11.3-25-18.6l10.9-12.4c5.7,4.6,11.7,8.6,18.1,11.9c8.9,4.7,18.3,8,28,10.2c10.5,2.3,21.2,3.1,31.9,2.5
				c10-0.6,20-2.5,29.5-5.7c7.6-2.5,14.8-5.9,21.7-10c3.3-2,6.5-4.2,9.6-6.6c4.8-3.7,9.4-7.9,13.6-12.5c0.1-0.1,0.2-0.2,0.3-0.4
				l0.7-0.7L694.1,419.5z"/>
			<path class="st4" d="M711,407.1c-6.8,10-14.9,19.1-24.1,27.1l-1.8,1.6c-1.9-3-4-5.9-6.2-8.8c-7.5-9.5-16.5-17.6-26.6-24.1
				c-0.2-0.1-0.4-0.3-0.6-0.4l-0.1,0l0.2-0.2c4.5-4.8,9.2-9.3,14.2-13.4c5-4.2,10.3-8,15.8-11.6c0.2,0.2,0.3,0.3,0.5,0.5
				c1.4,1.2,2.7,2.4,4,3.7c4.5,4.2,8.8,8.4,13,12.7c4,4.1,7.7,8.3,11.3,12.4C710.7,406.8,710.8,407,711,407.1z"/>
			<path class="st9" d="M549.4,571.9c0,0.1,0,0.1,0,0.2c-0.1,1.2-0.3,2.4-0.5,3.5c-0.1,0.4-0.1,0.8-0.2,1.2
				c-0.1,0.4-0.1,0.8-0.2,1.2c-0.1,0.4-0.1,0.8-0.2,1.2c-0.1,0.4-0.1,0.7-0.2,1.1c0,0.1,0,0.1,0,0.2c-0.1,0.3-0.1,0.7-0.2,1
				c-0.2,1.1-0.5,2.2-0.8,3.3c0,0.1,0,0.1-0.1,0.2c-0.5,1.9-1,3.7-1.6,5.5c-0.1,0.2-0.1,0.4-0.2,0.6c-0.1,0.4-0.3,0.8-0.4,1.2
				c-0.1,0.2-0.1,0.4-0.2,0.6c-0.5,1.3-1,2.7-1.5,4c-0.1,0.3-0.3,0.7-0.4,1c-0.4,1-0.9,1.9-1.3,2.9c-1.2,2.5-2.5,5-4,7.3
				c-0.9,1.5-1.9,3-2.9,4.4c-1.3,1.7-2.6,3.4-3.9,5c-1.1,1.3-2.2,2.4-3.4,3.6c-0.3,0.3-0.6,0.6-0.9,0.8c-2.6,2.5-5.4,4.6-8.3,6.5
				c-0.3,0.2-0.6,0.4-1,0.6c-0.7,0.4-1.3,0.8-2,1.1c-0.7,0.4-1.3,0.7-2,1c-1.3,0.7-2.7,1.2-4.1,1.7v0c0,0.1,0,0.3,0,0.4H384
				c-11.5-4-21.9-12.7-29.5-25.1c-2.9-4.7-5.3-9.8-7.2-15.2c-0.3-0.8-0.6-1.6-0.8-2.4c-1.9-5.8-3.2-12-4-18.3c0-0.1,0-0.1,0-0.2
				H549.4z"/>
			<path class="st7" d="M549.4,571.9c0,0.1,0,0.1,0,0.2c-8.3,1.7-16.9,3.3-25.8,4.6c-1.4,0.2-2.8,0.4-4.2,0.6
				c-14.4,2-29.4,3.4-45,4.2c-3.2,0.2-6.4,0.3-9.6,0.4c-6.2,0.2-12.5,0.3-18.9,0.3c-6.4,0-12.7-0.1-18.9-0.3
				c-3.2-0.1-6.4-0.2-9.6-0.4c-23.4-1.2-45.6-3.8-66-7.6h0c-3-0.6-6-1.2-9-1.8c0-0.1,0-0.1,0-0.2l0.1-1.7c0.3-3.9,0.6-7.8,0.9-11.6
				c0.4-4.5,0.9-9.1,1.4-13.6c0.1-0.6,0.1-1.3,0.2-1.9c0.8-7.1,1.8-14.1,2.8-21.1c0.8-5.2,1.6-10.4,2.6-15.6
				c1.8-9.8,3.7-19.5,6-29.2c2.9-12.7,6.3-25.3,10-37.8c1.3-4.3,2.6-8.5,4-12.8c1.8-5.6,3.7-11.2,5.7-16.8c2.6-7.4,5.4-14.7,8.4-22
				h122.7c1.5,3.8,3,7.7,4.5,11.5c0.7,1.9,1.4,3.7,2.1,5.6c0.6,1.7,1.2,3.3,1.8,5c1.9,5.3,3.7,10.7,5.5,16.1
				c1.5,4.5,2.9,8.9,4.2,13.4c1.2,4.1,2.4,8.1,3.5,12.2c0.4,1.4,0.8,2.7,1.1,4.1v0c1.9,7.1,3.7,14.3,5.4,21.5
				c2.2,9.7,4.2,19.4,6,29.2c2.2,12.2,4,24.4,5.4,36.7c0.1,0.6,0.2,1.3,0.2,1.9c0.5,4.5,1,9,1.4,13.6c0.4,3.9,0.7,7.7,0.9,11.6
				L549.4,571.9z"/>
			<path class="st8" d="M549.4,571.9c0,0.1,0,0.1,0,0.2c-7.1,1.5-14.5,2.9-22.1,4c-0.6-8.3-1.4-16.6-2.3-24.8
				c-0.1-0.7-0.2-1.4-0.2-2.1c-1.6-13.6-3.6-27.1-6-40.5c-1.9-10.8-4.1-21.6-6.6-32.3c-1.8-7.9-3.8-15.9-5.9-23.7c0,0,0,0,0,0
				c-0.4-1.5-0.8-3-1.2-4.5c-1.2-4.5-2.5-9-3.9-13.5c-1.5-5-3-9.9-4.6-14.8c-1.9-5.9-4-11.9-6.1-17.8c-0.7-1.8-1.3-3.7-2-5.5
				c-0.8-2.1-1.5-4.1-2.3-6.2l-1-2.5h22.2c1.5,3.8,3,7.7,4.5,11.5c0.7,1.9,1.4,3.7,2.1,5.6c0.6,1.7,1.2,3.3,1.8,5
				c1.9,5.3,3.7,10.7,5.5,16.1c1.5,4.5,2.9,8.9,4.2,13.4c1.2,4.1,2.4,8.1,3.5,12.2c0.4,1.4,0.8,2.7,1.1,4.1v0
				c1.9,7.1,3.7,14.3,5.4,21.5c2.2,9.7,4.2,19.4,6,29.2c2.2,12.2,4,24.4,5.4,36.7c0.1,0.6,0.2,1.3,0.2,1.9c1,8.4,1.7,16.8,2.3,25.2
				L549.4,571.9z"/>
			<path class="st10" d="M549.4,571.9c0,0.1,0,0.1,0,0.2c0,0.4-0.1,0.8-0.1,1.2c-0.1,0.8-0.2,1.6-0.3,2.3c-0.1,0.8-0.2,1.6-0.4,2.3
				c-0.1,0.3-0.1,0.7-0.2,1c-0.1,0.3-0.1,0.6-0.2,0.9c-0.1,0.3-0.1,0.7-0.2,1c-0.1,0.4-0.2,0.8-0.3,1.2c-5.2,0.8-10.5,1.5-15.9,2.2
				c-2.1,0.3-4.1,0.5-6.2,0.8c-16.1,1.9-32.8,3.2-50.1,3.9c-8.2,0.3-16.6,0.5-25,0.6c-1.5,0-3,0-4.5,0c-10,0-19.8-0.2-29.5-0.6
				c-25.5-1-49.8-3.4-72.3-6.8c-0.7-3.3-1.3-6.6-1.7-10c0-0.1,0-0.1,0-0.2l0.1-1.7c0.3-3.9,0.6-7.8,0.9-11.6
				c23.7,4.6,49.8,7.6,77.4,8.8c8.2,0.3,16.6,0.5,25.1,0.5c0.6,0,1.2,0,1.7,0h0c7.9,0,15.6-0.2,23.3-0.5c18.3-0.8,35.9-2.4,52.7-4.7
				c0.8-0.1,1.7-0.2,2.5-0.4l0,0c7.6-1.1,15-2.3,22.3-3.7c0.4,3.9,0.7,7.7,0.9,11.6L549.4,571.9z"/>
			<path class="st4" d="M466.8,569c-0.4-1.3-1.1-2.4-1.8-3.4c-1.9-2.6-4.8-4.2-8-4.2h-22.1c-0.1,0-0.2,0-0.3,0c-0.1,0-0.2,0-0.3,0
				c-0.1,0-0.2,0-0.3,0c-0.1,0-0.2,0-0.2,0c0,0-0.1,0-0.1,0c-0.1,0-0.2,0-0.2,0c-0.1,0-0.1,0-0.2,0c-0.1,0-0.2,0-0.3,0.1
				c-0.3,0.1-0.6,0.1-0.9,0.2c-0.1,0-0.2,0.1-0.2,0.1c-0.1,0-0.2,0.1-0.3,0.1c-0.2,0.1-0.4,0.1-0.5,0.2c-0.2,0.1-0.3,0.2-0.5,0.3
				c0,0,0,0,0,0c-0.2,0.1-0.3,0.2-0.5,0.3c-0.2,0.1-0.3,0.2-0.5,0.3c0,0,0,0,0,0c-0.1,0.1-0.3,0.2-0.4,0.3c0,0,0,0-0.1,0
				c-0.1,0.1-0.3,0.2-0.4,0.4c-0.1,0.1-0.2,0.2-0.3,0.3c0,0,0,0,0,0c-0.1,0.1-0.1,0.1-0.2,0.2c-0.3,0.3-0.5,0.5-0.8,0.8
				c-0.1,0.1-0.2,0.3-0.3,0.4c0,0,0,0,0,0c-0.3,0.4-0.6,0.8-0.8,1.2c-0.4,0.7-0.8,1.4-1,2.2c-0.5,1.4-0.8,3-0.8,4.6v9.7
				c0,2.2,0.5,4.2,1.4,6c1.8,3.7,5.3,6.2,9.3,6.2h22.1c0.2,0,0.4,0,0.5,0c0.1,0,0.3,0,0.4,0c0.1,0,0.2,0,0.4,0c0.1,0,0.1,0,0.2,0
				c0.1,0,0.3,0,0.4-0.1c0.1,0,0.2,0,0.3-0.1c0.1,0,0.2,0,0.2-0.1c0.1,0,0.2,0,0.2-0.1c0.1,0,0.1,0,0.2-0.1c0.1,0,0.2-0.1,0.4-0.1
				c0.1,0,0.3-0.1,0.4-0.1c0.1-0.1,0.3-0.1,0.4-0.2c0.1-0.1,0.3-0.1,0.4-0.2c0.1-0.1,0.3-0.1,0.4-0.2c0.1-0.1,0.3-0.2,0.4-0.2
				c0.1-0.1,0.3-0.2,0.4-0.3c0.1-0.1,0.2-0.1,0.3-0.2c1.2-0.9,2.3-2.1,3.1-3.5c0.1-0.1,0.1-0.2,0.2-0.3c0.1-0.1,0.1-0.2,0.2-0.3
				c0.3-0.6,0.5-1.1,0.7-1.8c0.1-0.2,0.1-0.3,0.1-0.5c0-0.2,0.1-0.3,0.1-0.5c0-0.2,0.1-0.3,0.1-0.5c0.2-0.9,0.3-1.8,0.3-2.8v-9.7
				C467.6,571.9,467.3,570.4,466.8,569z M460.3,581.6c0,3.7-2.6,6.6-5.8,6.6h-17.2c-3.2,0-5.8-3-5.8-6.6v-6.5c0-0.9,0.1-1.7,0.4-2.5
				c0-0.1,0.1-0.3,0.2-0.4c0,0,0-0.1,0-0.1c0.1-0.1,0.1-0.2,0.2-0.4c0,0,0,0,0-0.1c0.1-0.1,0.1-0.2,0.2-0.4c0.1-0.1,0.1-0.2,0.2-0.3
				c0.1-0.2,0.2-0.3,0.4-0.5c0.1-0.1,0.1-0.2,0.2-0.2c0,0,0-0.1,0.1-0.1c0.1-0.1,0.2-0.2,0.3-0.3c0,0,0,0,0,0
				c0.1-0.1,0.2-0.2,0.3-0.3c0.4-0.3,0.8-0.5,1.2-0.7c0,0,0,0,0,0c0.1,0,0.2-0.1,0.2-0.1c0.2-0.1,0.5-0.2,0.7-0.2c0.1,0,0.1,0,0.2,0
				c0.2,0,0.4-0.1,0.6-0.1c0.1,0,0.2,0,0.3,0h17.2c0.7,0,1.4,0.2,2.1,0.4c2.2,1,3.7,3.4,3.7,6.2V581.6z"/>
			<path class="st11" d="M549.4,571.9c0,0.1,0,0.1,0,0.2c0,0.4-0.1,0.8-0.1,1.2c-0.1,0.8-0.2,1.6-0.3,2.3c-0.1,0.8-0.2,1.6-0.4,2.3
				c-0.1,0.3-0.1,0.7-0.2,1c-0.1,0.3-0.1,0.6-0.2,0.9c-0.1,0.3-0.1,0.7-0.2,1c-0.1,0.4-0.2,0.8-0.3,1.2c-5.2,0.8-10.5,1.5-15.9,2.2
				c-2.1,0.3-4.1,0.5-6.2,0.8c1.2-7.2,1.4-14.5,0.7-21.8l-0.1-1l0,0c7.6-1.1,15-2.3,22.3-3.7c0.4,3.9,0.7,7.7,0.9,11.6L549.4,571.9z
				"/>
			<path class="st12" d="M459.4,426.4c0,7.7-2,15.3-5.9,22h-15.9c-3.9-6.7-5.9-14.3-5.9-22c0-1.2,0.1-2.4,0.2-3.6l0-0.3l13.7-4.9
				l13.7,4.9l0,0.3C459.4,424,459.4,425.2,459.4,426.4z"/>
			<path class="st8" d="M445.9,417.6l15.2,30.9l0,0c18-9.4,33.5-22.8,45.5-39.2l5.4-7.5L445.9,417.6z"/>
			<path class="st8" d="M445.6,417.6l-15.2,30.9l0,0c-18-9.4-33.5-22.8-45.5-39.2l-5.4-7.5L445.6,417.6z"/>
			<path class="st12" d="M462,526.7c0,8.3-3,16.4-8.5,22.7l-7.9,9.1l-7.9-9.1c-5.5-6.3-8.5-14.4-8.5-22.7c0-1.3,0.1-2.5,0.2-3.8
				l0.9-7.8l0.4-3.5l7-63.3l8-1.7l8,1.7l7,63.3l0.4,3.5l0.9,7.8C462,524.2,462,525.5,462,526.7z"/>
			<path class="st13" d="M603.3,589.7c0,14.7-9.5,28.5-24.7,32.9l-97.1,28l-8.7,2.5l-2.1,0.6l-25.1,7.2l-37.2,24.4l10-32.2
				l27.2-18.9l104-72.4c17.3-12,41.3-5.7,50.4,13.4C602.2,579.8,603.3,584.8,603.3,589.7z"/>
			<path class="st13" d="M482.8,685.2l-37.2-24.4l-27.2-7.8l-1-0.3l-6.9-2l-97.9-28.2c-15.2-4.4-24.7-18.2-24.7-32.9
				c0-4.9,1.1-9.9,3.3-14.7c9.1-19,33-25.4,50.4-13.4l104,72.4l26.9,18.7l0.4,0.2L482.8,685.2z"/>
			<g>
				<path class="st14" d="M374.1,131.5V76.3l-16.3-8C339,59.1,316.4,63,301.7,78h0c-8.9,9.1-13.9,21.3-13.9,34v0
					c0,40.4,3.9,80.7,11.8,120.3l4.7,23.7L374.1,131.5z"/>
				<path class="st15" d="M516.3,131.5V76.3l16.3-8c18.9-9.2,41.5-5.3,56.2,9.7h0c8.9,9.1,13.9,21.3,13.9,34v0
					c0,40.4-3.9,80.7-11.8,120.3l-4.7,23.7L516.3,131.5z"/>
				<path class="st6" d="M587.3,262.8c0,11.9-0.7,23.8-2.2,35.6c-0.6,4.8-1.4,9.6-2.4,14.3c-0.5,2.3-1,4.6-1.6,6.9
					c-1.9,7.1-4.2,14-6.9,20.7c-5.4,13.2-12.6,25.5-21.2,36.4c-15.8,20-36.2,34.7-58.8,42.5c-15.9,5.5-32.3,8.3-48.7,8.3
					c-16.4,0-32.9-2.7-48.7-8.3c-11.3-3.9-22.1-9.5-31.9-16.7c-9.9-7.2-18.9-15.8-26.8-25.8c-8.7-10.9-15.8-23.2-21.2-36.4
					c-5.4-13.2-9.1-27.3-11-41.8c-0.2-1.5-0.4-3-0.5-4.4c-3.4,1.5-7.2,2.4-11.2,2.4c-15.2,0-27.6-12.4-27.6-27.7
					c0-15.3,12.4-27.7,27.6-27.7c3.6,0,7,0.7,10.2,1.9c0.7-10.6,2.1-21.1,4-31.6l14.1-76.9l1.8-9.9l0.8-4.3H566l4.8,26.3l0.9,5.2
					l10.9,59.7C585.8,228.4,587.3,245.6,587.3,262.8z"/>
				<path class="st16" d="M624.8,268.7c0,15.3-12.4,27.7-27.6,27.7c-4.1,0-8.1-0.9-11.6-2.6c-0.2,1.5-0.3,3.1-0.5,4.6
					c-1.8,14.6-5.5,28.7-11,41.8c-5.4,13.2-12.6,25.5-21.2,36.4c-15.8,20-36.2,34.7-58.8,42.5c-15.9,5.5-32.3,8.3-48.7,8.3
					c-6.2,0-12.4-0.4-18.5-1.2c10.2-1.3,20.3-3.7,30.2-7.1c22.6-7.8,42.9-22.5,58.8-42.5c8.7-10.9,15.8-23.2,21.2-36.4
					c5.4-13.2,9.1-27.3,11-41.8c1.5-11.8,2.2-23.7,2.2-35.6c0-17.2-1.5-34.4-4.6-51.4l-16.7-91.2H566l16.7,91.2
					c1.9,10.5,3.2,21.1,4,31.7c3.3-1.4,6.8-2.1,10.6-2.1C612.5,241.1,624.8,253.4,624.8,268.7z"/>
				<ellipse class="st17" cx="517" cy="286.3" rx="25.9" ry="9.1"/>
				<ellipse class="st17" cx="374.1" cy="286.3" rx="25.9" ry="9.1"/>
				<path class="st18" d="M593.3,282.4l-1.1-8.9c-0.8-7,1.4-13.9,6.1-19.1v0c2.4-2.7,6.7-2.5,9,0.3l4,5.1l-4.8-3
					c-2-1.3-4.7-1.1-6.5,0.6v0c-3.9,3.6-6.2,8.7-6.4,14.1L593.3,282.4z"/>
				<path class="st18" d="M296.1,282.4l1.1-8.9c0.8-7-1.4-13.9-6.1-19.1v0c-2.4-2.7-6.7-2.5-9,0.3l-4,5.1l4.8-3
					c2-1.3,4.7-1.1,6.5,0.6v0c3.9,3.6,6.2,8.7,6.4,14.1L296.1,282.4z"/>
				<path class="st16" d="M571.7,151.7c-28.7,16.2-61.3,25.4-96,25.4c-58.2,0-113.8-13.2-151.8-52.5l0.8-4.3H566l4.8,26.3
					L571.7,151.7z"/>
				<path class="st14" d="M464.5,164.1c-0.9,0-1.8,0-2.8,0c12.8,1.4,25.6,2,38.5,2c9.6,0,19.2-0.4,28.8-1.1
					c-34.6,4.6-69.6,4-103.8-1.9c-10.2-1.7-20.4-4-30.4-6.6c0,0,0,0-0.1,0c-1.9-0.5-3.8-1-5.7-1.6l-8.3-2.4
					c23,15.3,48.8,26.2,76.2,32l11,2.3l-18.8-2.6c-42.4-6-82.2-24.2-114.4-52.5l-10.9-9.6l0,0c-7.8-6.6-15.1-14-21.6-22.5
					c-0.6-0.7,2.5-16.8,1.9-17.5C342,32,399.8,0,464.5,0c64.8,0,122.6,32,160.3,82.1c-28.4,37.7-68.2,65.2-113.8,76.4
					C496.1,162.2,480.5,164.1,464.5,164.1z"/>
				<path class="st14" d="M394.8,156.5c-4.7-1.2-9.4-2.5-14-3.9l8.3,2.4C391,155.5,392.9,156,394.8,156.5z"/>
				<path class="st15" d="M464.5,164.1c-0.9,0-1.8,0-2.8,0c12.8,1.4,25.6,2,38.5,2c9.6,0,19.2-0.4,28.8-1.1
					c-34.6,4.6-69.6,4-103.8-1.9l3.2-0.8c18.6-4.4,37.1-11.1,55.3-19.4c46.2-20.9,80.4-58,99.7-102.5c15.5,11.8,29.5,25.8,41.4,41.6
					c-28.4,37.7-68.2,65.2-113.8,76.4h0c-0.1,0-0.1,0-0.2,0.1c-0.4,0.1-0.8,0.2-1.2,0.3c-0.5,0.1-0.9,0.2-1.4,0.3
					c-0.3,0.1-0.7,0.2-1,0.2c-0.4,0.1-0.7,0.2-1.1,0.2c-0.3,0.1-0.7,0.1-1,0.2c-0.3,0.1-0.7,0.1-1,0.2c-0.1,0-0.3,0.1-0.4,0.1
					c-0.3,0.1-0.7,0.1-1,0.2c-0.8,0.2-1.7,0.3-2.5,0.5c-0.5,0.1-1,0.2-1.4,0.3c-0.4,0.1-0.9,0.2-1.3,0.2c-0.5,0.1-1.1,0.2-1.6,0.3
					c-0.4,0.1-0.8,0.1-1.2,0.2c-0.1,0-0.2,0-0.3,0c-0.5,0.1-0.9,0.1-1.4,0.2c-1.5,0.2-2.9,0.4-4.4,0.6c-0.5,0.1-1,0.1-1.5,0.2
					c-0.5,0.1-1,0.1-1.5,0.2c-0.4,0-0.8,0.1-1.2,0.1c-0.6,0.1-1.2,0.1-1.7,0.2c-0.3,0-0.6,0.1-0.9,0.1c-1.7,0.1-3.3,0.3-5,0.4
					c-0.3,0-0.6,0-0.9,0.1c-0.3,0-0.5,0-0.8,0c-1.6,0.1-3.2,0.2-4.9,0.2c-0.4,0-0.7,0-1.1,0C467.5,164.1,466,164.1,464.5,164.1z"/>
				<path class="st15" d="M488.5,162.7c1.5-0.2,2.9-0.4,4.4-0.6C491.4,162.3,490,162.5,488.5,162.7z"/>
				<path class="st11" d="M583.2,217.4h-20.5c-3.8-3.1-8.5-4.8-13.4-4.8h-41.1c-7.2,0-14.3,1-21.1,2.9c-6.8,1.9-13.4,4.8-19.5,8.5
					c-3.2,2-6.7,3.5-10.4,4.5c-3.6,1-7.4,1.6-11.2,1.6c-3.8,0-7.6-0.5-11.2-1.6c-3.6-1-7.1-2.5-10.4-4.5c-6.1-3.7-12.7-6.6-19.5-8.5
					c-6.8-1.9-13.9-2.9-21.1-2.9h-41.1c-4.9,0-9.6,1.7-13.4,4.8h-20.5c-3.9,0-7,3.2-7,7v6.8c0,2.6,1.4,4.9,3.6,6.2l5.9,3.3l2,18.3
					c1.1,10.6,5.4,20.5,12.1,28.7c4.3,5.1,9.6,9.2,15.5,11.9c5.9,2.7,12.4,4.2,19,4.2h23.7c12.4,0,24.2-5.3,32.5-14.5
					c3.3-3.6,6.1-7.5,8.6-11.7c2.5-4.2,4.6-8.5,6.3-13.1l8.7-23.8h12.7l8.7,23.8c1.7,4.6,3.8,8.9,6.3,13.1c2.5,4.2,5.4,8.1,8.6,11.7
					c8.3,9.2,20.1,14.5,32.5,14.5h23.7c6.7,0,13.2-1.5,19.1-4.2c5.9-2.8,11.2-6.8,15.4-11.9c6.8-8.1,11-18.1,12.1-28.7l2-18.3
					l5.9-3.3c2.2-1.3,3.6-3.6,3.6-6.2v-6.8C590.2,220.6,587.1,217.4,583.2,217.4z M416.1,275.5c-5.1,8.3-12.5,17-16.5,19.3
					c-4,2.3-17.4,4.2-29.9,4.2c-12.4,0-26.9-3-32.1-6.7c-5.2-3.7-11.1-10.3-13.1-14.8c-2-4.5-3.6-14.9-3.6-23.2
					c0-8.3,4.5-19.1,10.1-24c5.5-4.9,22-8.9,36.6-8.9c14.6,0,33.6,3.4,42.2,7.6c8.6,4.1,15.6,12.9,15.6,19.6
					C425.3,255,421.2,267.2,416.1,275.5z M567.5,277.4c-2,4.4-7.9,11.1-13.1,14.8c-5.2,3.7-19.7,6.7-32.1,6.7
					c-12.5,0-25.9-1.9-29.9-4.2c-4-2.3-11.4-11-16.5-19.3c-5.1-8.3-9.2-20.5-9.2-27.1c0-6.6,7-15.4,15.6-19.6
					c8.6-4.1,27.6-7.6,42.2-7.6c14.6,0,31.1,4,36.6,8.9c5.5,4.9,10.1,15.7,10.1,24C571.1,262.5,569.5,273,567.5,277.4z"/>
				<circle class="st19" cx="312.1" cy="228.3" r="4.4"/>
				<circle class="st19" cx="579.1" cy="228.3" r="4.4"/>
				<path class="st18" d="M472,293.6L472,293.6c-0.2,0.3-0.4,0.5-0.6,0.8c-1,1.2-2.1,2.3-3.2,3.3c-0.4,0.3-0.7,0.6-1.1,0.9
					c-0.2,0.2-0.4,0.3-0.6,0.5c-1.6,1.3-3.3,2.5-5.1,3.5c-8.3,4.8-18.4,4.8-26.7,0c-1.9-1.1-3.6-2.3-5.3-3.7c-0.5-0.4-1-0.9-1.6-1.3
					c-0.2-0.2-0.4-0.3-0.6-0.5c-0.9-0.9-1.8-1.8-2.7-2.8c-0.2-0.2-0.4-0.4-0.6-0.7l0-0.1l1,0.6l0.7,0.4c1.8,1.1,3.7,2,5.7,2.8
					c3.1,1.3,6.4,2.2,9.8,2.7c2.3,0.4,4.6,0.5,6.9,0.5c3.9,0,7.8-0.5,11.6-1.5c0,0,0.1,0,0.1,0c0.3-0.1,0.5-0.1,0.8-0.2
					c3.5-1,6.8-2.4,9.9-4.2l0.6-0.3L472,293.6z"/>
				<path class="st18" d="M535.9,243.5c-1.5,0-2.9,1.1-3.1,2.6c-1.2,7-7.4,12.3-14.7,12.3c-7.4,0-13.5-5.3-14.7-12.3
					c-0.3-1.5-1.6-2.6-3.1-2.6l0,0c-2,0-3.5,1.8-3.1,3.8c1.8,10,10.5,17.5,21,17.5c10.5,0,19.2-7.6,21-17.5
					C539.3,245.3,537.9,243.5,535.9,243.5L535.9,243.5z"/>
				<path class="st18" d="M393.4,243.5c-1.5,0-2.9,1.1-3.1,2.6c-1.2,7-7.4,12.3-14.7,12.3c-7.4,0-13.5-5.3-14.7-12.3
					c-0.3-1.5-1.6-2.6-3.1-2.6l0,0c-2,0-3.5,1.8-3.1,3.8c1.8,10,10.5,17.5,21,17.5c10.5,0,19.2-7.6,21-17.5
					C396.8,245.3,395.4,243.5,393.4,243.5L393.4,243.5z"/>
				<path class="st18" d="M494.9,341.8l-2.7,1.4c-13.4,7.1-28.4,10.8-43.5,10.8c-15.2,0-30.1-3.7-43.5-10.8l-2.7-1.4l4.1,1.2
					c13.7,4,27.8,6.1,42.1,6.1c14.2,0,28.4-2,42.1-6.1L494.9,341.8z"/>
				<path class="st18" d="M452.2,373.8c-1.5,2.8-5.5,2.8-7,0H452.2z"/>
			</g>
		</g>
	</g>
	<path class="st3" d="M232.7,40.8L263,80.6l-5.1,3.4c-34.4,22.9-78.8,24-114.3,2.9l0,0l-25.3-56.3l10.1,7.4
		C159.3,60.3,200.7,61.4,232.7,40.8L232.7,40.8z"/>
</g>
</svg>
