<?xml version="1.0" encoding="utf-8"?>
<!-- Generator: Adobe Illustrator 16.0.0, SVG Export Plug-In . SVG Version: 6.00 Build 0)  -->
<!DOCTYPE svg PUBLIC "-//W3C//DTD SVG 1.1//EN" "http://www.w3.org/Graphics/SVG/1.1/DTD/svg11.dtd">
<svg version="1.1" id="Layer_1" xmlns="http://www.w3.org/2000/svg" xmlns:xlink="http://www.w3.org/1999/xlink" x="0px" y="0px"
	 width="32px" height="32px" viewBox="0 0 32 32" enable-background="new 0 0 32 32" xml:space="preserve">
<path fill="#4CB96B" d="M16.008,2.017c3.396,0,6.998,2.86,6.998,4.995v4.998c0,1.923-0.801,5.604-2.945,7.292
	c-0.547,0.432-0.832,1.116-0.75,1.808c0.082,0.692,0.52,1.291,1.152,1.582l8.703,4.127c0.066,0.03,0.834,0.16,0.834,1.229V30
	L2.017,30.001v-2.029c0-0.795,0.597-1.045,0.835-1.155l8.782-4.144c0.631-0.289,1.064-0.886,1.148-1.572
	c0.086-0.688-0.191-1.37-0.732-1.804c-2.078-1.668-3.045-5.335-3.045-7.287V7.012C9.004,4.923,12.641,2.017,16.008,2.017
	 M16.008,0.017c-4.416,0-9.004,3.686-9.004,6.995v4.998c0,2.184,0.997,6.601,3.793,8.847l-8.783,4.145c0,0-1.998,0.89-1.998,1.999
	v3.001C0.017,31.105,0.911,32,2.015,32H30c1.105,0,2-0.895,2-1.999V27c0-1.175-2-1.999-2-1.999l-8.703-4.127
	c2.771-2.181,3.709-6.464,3.709-8.864V7.012C25.006,3.702,20.424,0.017,16.008,0.017L16.008,0.017z"/>
</svg>
