<?xml version="1.0" encoding="utf-8"?>
<!-- Generator: Adobe Illustrator 16.0.0, SVG Export Plug-In . SVG Version: 6.00 Build 0)  -->
<!DOCTYPE svg PUBLIC "-//W3C//DTD SVG 1.1//EN" "http://www.w3.org/Graphics/SVG/1.1/DTD/svg11.dtd">
<svg version="1.1" id="Layer_1" xmlns="http://www.w3.org/2000/svg" xmlns:xlink="http://www.w3.org/1999/xlink" x="0px" y="0px"
	 width="48px" height="48px" viewBox="0 0 48 48" enable-background="new 0 0 48 48" xml:space="preserve">
<g>
	<g>
		<path fill-rule="evenodd" clip-rule="evenodd" fill="#4CB96B" d="M24,0C10.746,0,0,10.745,0,24c0,13.256,10.746,24,24,24
			c13.256,0,24-10.744,24-24C48,10.745,37.256,0,24,0z M24,45.047C12.42,45.047,3,35.58,3,24C3,12.421,12.42,3,24,3
			c11.58,0,21,9.421,21,21C45,35.58,35.58,45.047,24,45.047z M25.5,23.391V9c0-0.828-0.672-1.5-1.5-1.5c-0.829,0-1.5,0.672-1.5,1.5
			v15c0,0.438,0.191,0.829,0.491,1.104c0.018,0.02,0.024,0.045,0.043,0.064l7.425,7.424c0.586,0.587,1.535,0.587,2.121,0
			c0.586-0.585,0.586-1.535,0-2.121L25.5,23.391z"/>
	</g>
</g>
</svg>
