<?xml version="1.0" encoding="utf-8"?>
<!-- Generator: Adobe Illustrator 16.0.0, SVG Export Plug-In . SVG Version: 6.00 Build 0)  -->
<!DOCTYPE svg PUBLIC "-//W3C//DTD SVG 1.1//EN" "http://www.w3.org/Graphics/SVG/1.1/DTD/svg11.dtd">
<svg version="1.1" id="Layer_1" xmlns="http://www.w3.org/2000/svg" xmlns:xlink="http://www.w3.org/1999/xlink" x="0px" y="0px"
	 width="44.991px" height="47.999px" viewBox="0 0 44.991 47.999" enable-background="new 0 0 44.991 47.999" xml:space="preserve">
<g>
	<g>
		<path fill="#4CB96B" d="M11.595,14.999H1.412c-0.78,0-1.412,0.671-1.412,1.5v30c0,0.828,0.632,1.5,1.412,1.5h10.183
			c0.78,0,1.412-0.672,1.412-1.5v-30C13.007,15.67,12.375,14.999,11.595,14.999z M10.182,44.999H2.825v-27h7.356V44.999z
			 M27.665,23.917H17.409c-0.78,0-1.412,0.671-1.412,1.5v21.082c0,0.828,0.632,1.5,1.412,1.5h10.256c0.781,0,1.413-0.672,1.413-1.5
			V25.417C29.078,24.588,28.446,23.917,27.665,23.917z M26.253,44.999h-7.431V26.917h7.431V44.999z M43.579,0H33.521
			c-0.781,0-1.413,0.67-1.413,1.499v45c0,0.828,0.632,1.5,1.413,1.5h10.059c0.78,0,1.412-0.672,1.412-1.5v-45
			C44.991,0.67,44.359,0,43.579,0z M42.166,44.999h-7.233V3h7.233V44.999z"/>
	</g>
</g>
</svg>
