<?xml version="1.0" encoding="utf-8"?>
<!-- Generator: Adobe Illustrator 16.0.0, SVG Export Plug-In . SVG Version: 6.00 Build 0)  -->
<!DOCTYPE svg PUBLIC "-//W3C//DTD SVG 1.1//EN" "http://www.w3.org/Graphics/SVG/1.1/DTD/svg11.dtd">
<svg version="1.1" id="Layer_1" xmlns="http://www.w3.org/2000/svg" xmlns:xlink="http://www.w3.org/1999/xlink" x="0px" y="0px"
	 width="32px" height="32px" viewBox="0 0 32 32" enable-background="new 0 0 32 32" xml:space="preserve">
<g>
	<g>
		<path fill="#4CB96B" d="M24,0H13c-1.105,0-2,0.896-2,2h11v8h8v16h-7v2h7c1.104,0,2-0.896,2-2V8.001L24,0z M24,8V2.828L29.17,8H24z
			 M2,4C0.896,4,0,4.896,0,6v24c0,1.104,0.896,2,2,2h17c1.104,0,2-0.896,2-2V12l-8-8H2z M19,30H2V6h9v8h8V30z M13,12V6.828
			L18.171,12H13z"/>
	</g>
</g>
</svg>
