<?xml version="1.0" encoding="utf-8"?>
<!-- Generator: Adobe Illustrator 16.0.0, SVG Export Plug-In . SVG Version: 6.00 Build 0)  -->
<!DOCTYPE svg PUBLIC "-//W3C//DTD SVG 1.1//EN" "http://www.w3.org/Graphics/SVG/1.1/DTD/svg11.dtd">
<svg version="1.1" id="Layer_1" xmlns="http://www.w3.org/2000/svg" xmlns:xlink="http://www.w3.org/1999/xlink" x="0px" y="0px"
	 width="30px" height="30px" viewBox="0 0 30 30" enable-background="new 0 0 30 30" xml:space="preserve">
<path fill="#98A8B2" d="M15,0C6.716,0,0,6.716,0,15s6.716,15,15,15s15-6.716,15-15S23.284,0,15,0z M20.602,12.376
	c0.005,0.113,0.008,0.227,0.008,0.342c0,3.487-2.655,7.51-7.51,7.51c-1.491,0-2.878-0.438-4.046-1.186
	c0.206,0.023,0.416,0.037,0.629,0.037c1.237,0,2.375-0.423,3.278-1.131c-1.155-0.021-2.13-0.784-2.465-1.833
	c0.161,0.031,0.326,0.048,0.497,0.048c0.241,0,0.474-0.032,0.695-0.093c-1.208-0.242-2.117-1.31-2.117-2.588
	c0-0.012,0-0.022,0-0.034c0.356,0.198,0.763,0.317,1.196,0.331c-0.708-0.474-1.174-1.281-1.174-2.196
	c0-0.484,0.13-0.938,0.357-1.327c1.302,1.597,3.247,2.647,5.44,2.758c-0.045-0.193-0.068-0.395-0.068-0.603
	c0-1.457,1.182-2.639,2.64-2.639c0.759,0,1.445,0.32,1.926,0.833c0.602-0.118,1.166-0.338,1.676-0.641
	c-0.196,0.617-0.615,1.134-1.16,1.461c0.534-0.064,1.043-0.206,1.516-0.416C21.564,11.539,21.117,12.004,20.602,12.376z"/>
</svg>
