<?xml version="1.0" encoding="utf-8"?>
<!-- Generator: Adobe Illustrator 16.0.0, SVG Export Plug-In . SVG Version: 6.00 Build 0)  -->
<!DOCTYPE svg PUBLIC "-//W3C//DTD SVG 1.1//EN" "http://www.w3.org/Graphics/SVG/1.1/DTD/svg11.dtd">
<svg version="1.1" id="Layer_1" xmlns="http://www.w3.org/2000/svg" xmlns:xlink="http://www.w3.org/1999/xlink" x="0px" y="0px"
	 width="30.988px" height="31.881px" viewBox="0 0 30.988 31.881" enable-background="new 0 0 30.988 31.881" xml:space="preserve">
<path fill="#4CB96B" d="M28.297,2L28.297,2c0.316,0,0.539,0.061,0.654,0.106c0.14,0.382,0.326,1.751-1.047,3.167l-6.387,6.583
	l-0.615,0.636l0.05,0.895c0.106,1.874,0.303,5.232,0.473,8.111c0.15,2.563,0.292,4.983,0.302,5.188
	c0.005,0.142,0.007,0.175-0.122,0.334c-0.285,0.358-0.82,0.967-1.27,1.47c-0.698-1.938-2.165-6.033-2.976-8.325l-1.041-2.949
	l-2.153,2.22l-3.96,3.925l-0.551,0.567L9.637,24.73c-0.013,0.641-0.01,1.791-0.008,2.805c0.002,0.705,0.003,1.348-0.001,1.7
	c-0.009,0.017,0.133,0.036,0.119,0.06c-0.084-0.139-0.176-0.29-0.271-0.445c-0.798-1.313-1.903-3.128-2.24-3.695L6.99,24.739
	l-0.405-0.252c-1.471-0.916-3.101-1.974-4.096-2.634c0.034-0.021,0.063,0.088,0.086,0.074h0.064c0.313,0,0.83,0.007,1.409,0.016
	c0.758,0.011,1.618,0.024,2.277,0.024c0.252,0,0.477-0.003,0.656-0.007l0.779-0.018l0.55-0.568l3.813-4.054l2.146-2.211
	l-2.848-1.079c-2.14-0.813-6.239-2.391-8.157-3.133c0.491-0.467,1.085-1.021,1.431-1.315C4.792,9.5,4.867,9.459,4.918,9.459
	l0.068,0.002c0.214,0.01,2.87,0.189,5.438,0.361c2.728,0.184,5.805,0.391,7.555,0.505l0.874,0.057l0.62-0.639l6.385-6.581
	C26.842,2.152,27.808,2,28.297,2 M28.297,0c-1.146,0-2.554,0.454-3.811,1.75l-6.385,6.581C14.505,8.097,5.294,7.469,5.066,7.463
	C5.026,7.46,4.975,7.458,4.918,7.458c-0.311,0-0.848,0.062-1.459,0.582c-0.718,0.611-2.213,2.062-2.213,2.062
	c-0.361,0.373-0.544,0.836-0.501,1.27c0.026,0.264,0.165,0.742,0.79,0.994c0.38,0.153,6.425,2.484,9.216,3.543l-3.813,4.053
	c-0.168,0.004-0.378,0.006-0.613,0.006c-1.163,0-2.965-0.038-3.687-0.038c-0.096,0-0.173,0-0.227,0.002
	c-0.22,0.006-0.675-0.104-1.875,0.929l-0.085,0.082C0.092,21.313,0.008,21.684,0,21.928c-0.008,0.251,0.058,0.614,0.411,0.907
	c0.212,0.177,2.936,1.974,5.17,3.364c0.535,0.901,3,4.938,3.129,5.156c0.188,0.328,0.494,0.514,0.861,0.525c0.011,0,0.021,0,0.031,0
	c0.356,0,0.724-0.183,1.082-0.542c1.016-1.224,0.876-1.731,0.881-1.944c0.016-0.668-0.012-3.497,0.012-4.619l3.96-3.926
	c1.012,2.865,3.224,9.032,3.372,9.424c0.246,0.646,0.71,0.786,0.965,0.813c0.042,0.006,0.084,0.008,0.126,0.008
	c0.383,0,0.78-0.186,1.104-0.521c0,0,1.402-1.534,1.998-2.28c0.598-0.746,0.573-1.383,0.563-1.684
	c-0.005-0.208-0.566-9.65-0.775-13.337l6.387-6.584c2.264-2.334,1.903-5.146,1.063-6.011C29.966,0.291,29.215,0,28.297,0L28.297,0z"
	/>
</svg>
