<?xml version="1.0" encoding="utf-8"?>
<!-- Generator: Adobe Illustrator 16.0.0, SVG Export Plug-In . SVG Version: 6.00 Build 0)  -->
<!DOCTYPE svg PUBLIC "-//W3C//DTD SVG 1.1//EN" "http://www.w3.org/Graphics/SVG/1.1/DTD/svg11.dtd">
<svg version="1.1" id="Layer_1" xmlns="http://www.w3.org/2000/svg" xmlns:xlink="http://www.w3.org/1999/xlink" x="0px" y="0px"
	 width="905.81px" height="943.989px" viewBox="0 0 905.81 943.989" enable-background="new 0 0 905.81 943.989"
	 xml:space="preserve">
<g>
	<defs>
		<polyline id="SVGID_1_" points="905.81,943.989 905.81,0 0,0 0,943.989 		"/>
	</defs>
	<clipPath id="SVGID_2_">
		<use xlink:href="#SVGID_1_"  overflow="visible"/>
	</clipPath>
	<g clip-path="url(#SVGID_2_)">
		<defs>
			<polyline id="SVGID_3_" points="0,943.989 0,0 905.81,0 905.81,943.989 			"/>
		</defs>
		<clipPath id="SVGID_4_">
			<use xlink:href="#SVGID_3_"  overflow="visible"/>
		</clipPath>
		<g opacity="0.5" clip-path="url(#SVGID_4_)">
			<g>
				<defs>
					<line id="SVGID_5_" x1="13.681" y1="271.472" x2="13.681" y2="943.441"/>
				</defs>
				<defs>
					<line id="SVGID_6_" x1="905.81" y1="943.441" x2="905.81" y2="271.472"/>
				</defs>
				<clipPath id="SVGID_7_">
					<use xlink:href="#SVGID_5_"  overflow="visible"/>
				</clipPath>
				<clipPath id="SVGID_8_" clip-path="url(#SVGID_7_)">
					<use xlink:href="#SVGID_6_"  overflow="visible"/>
				</clipPath>
				<polygon clip-path="url(#SVGID_8_)" fill="#374F66" points="216.423,733.71 216.423,739.792 219.644,739.792 219.644,765.711 
					226.081,765.711 226.081,771.793 222.86,771.793 222.86,784.117 216.423,784.117 216.423,796.665 226.081,796.665 
					226.081,802.747 229.297,802.747 229.297,808.833 216.423,808.833 216.423,814.915 219.644,814.915 219.644,827.239 
					229.297,827.239 229.297,839.339 216.423,839.339 216.423,845.425 229.297,845.425 229.297,857.524 242.171,857.524 
					242.171,863.606 222.86,863.606 222.86,887.297 229.297,887.297 229.297,899.617 222.86,899.617 222.86,923.977 
					229.297,923.977 229.297,936.077 242.171,936.077 242.171,942.163 219.644,942.163 219.644,942.651 16.897,942.651 
					16.897,942.163 39.425,942.163 39.425,936.077 26.555,936.077 26.555,923.977 20.118,923.977 20.118,899.617 26.555,899.617 
					26.555,887.297 20.118,887.297 20.118,863.606 39.425,863.606 39.425,857.524 26.555,857.524 26.555,845.425 13.681,845.425 
					13.681,839.339 26.555,839.339 26.555,827.239 16.897,827.239 16.897,814.915 13.681,814.915 13.681,808.833 26.555,808.833 
					26.555,802.747 23.334,802.747 23.334,796.665 13.681,796.665 13.681,784.117 20.118,784.117 20.118,771.793 23.334,771.793 
					23.334,765.711 16.897,765.711 16.897,739.792 13.681,739.792 13.681,733.71 26.555,733.71 26.555,727.628 39.425,727.628 
					39.425,721.542 26.555,721.542 26.555,709.442 20.118,709.442 20.118,685.752 13.681,685.752 13.681,679.67 26.555,679.67 
					26.555,673.584 13.681,673.584 13.681,667.502 26.555,667.502 26.555,655.402 16.897,655.402 16.897,643.078 219.644,643.078 
					219.644,655.402 229.297,655.402 229.297,667.502 216.423,667.502 216.423,673.584 229.297,673.584 229.297,679.67 
					216.423,679.67 216.423,685.752 222.86,685.752 222.86,709.442 229.297,709.442 229.297,721.542 242.171,721.542 
					242.171,727.628 229.297,727.628 229.297,733.71 				"/>
				<polygon clip-path="url(#SVGID_8_)" fill="#374F66" points="242.17,636.993 242.17,643.077 39.428,643.077 39.428,636.993 
					26.554,636.993 26.554,624.892 20.116,624.892 20.116,600.537 26.554,600.537 26.554,575.891 32.99,575.891 32.99,551.533 
					26.554,551.533 26.554,539.432 13.681,539.432 13.681,533.348 36.21,533.348 36.21,521.023 26.554,521.023 26.554,519.351 
					229.297,519.351 229.297,521.023 238.952,521.023 238.952,533.348 216.424,533.348 216.424,539.432 229.297,539.432 
					229.297,551.533 235.735,551.533 235.735,575.891 229.297,575.891 229.297,600.537 222.862,600.537 222.862,624.892 
					229.297,624.892 229.297,636.993 				"/>
				<polygon clip-path="url(#SVGID_8_)" fill="#374F66" points="905.811,676.333 905.811,671.425 893.025,671.425 893.025,661.662 
					902.614,661.662 902.614,651.721 701.253,651.721 701.253,661.662 691.664,661.662 691.664,671.425 704.45,671.425 
					704.45,676.333 691.664,676.333 691.664,681.241 704.45,681.241 704.45,686.149 698.057,686.149 698.057,705.262 
					691.664,705.262 691.664,715.023 678.879,715.023 678.879,719.932 691.664,719.932 691.664,724.839 704.45,724.839 
					704.45,729.748 701.253,729.748 701.253,750.657 694.86,750.657 694.86,755.565 698.057,755.565 698.057,765.507 
					704.45,765.507 704.45,775.629 694.86,775.629 694.86,780.537 691.664,780.537 691.664,785.445 704.45,785.445 704.45,790.354 
					701.253,790.354 701.253,800.296 691.664,800.296 691.664,810.059 704.45,810.059 704.45,814.966 691.664,814.966 
					691.664,824.729 678.879,824.729 678.879,829.638 698.057,829.638 698.057,848.748 691.664,848.748 691.664,858.69 
					698.057,858.69 698.057,878.341 691.664,878.341 691.664,888.104 678.879,888.104 678.879,893.012 701.253,893.012 
					701.253,913.92 694.86,913.92 694.86,918.829 896.221,918.829 896.221,913.92 902.614,913.92 902.614,893.012 880.239,893.012 
					880.239,888.104 893.025,888.104 893.025,878.341 899.417,878.341 899.417,858.69 893.025,858.69 893.025,848.748 
					899.417,848.748 899.417,829.638 880.239,829.638 880.239,824.729 893.025,824.729 893.025,814.966 905.811,814.966 
					905.811,810.059 893.025,810.059 893.025,800.296 902.614,800.296 902.614,790.354 905.811,790.354 905.811,785.445 
					893.025,785.445 893.025,780.537 896.221,780.537 896.221,775.629 905.811,775.629 905.811,765.507 899.417,765.507 
					899.417,755.565 896.221,755.565 896.221,750.657 902.614,750.657 902.614,729.748 905.811,729.748 905.811,724.839 
					893.025,724.839 893.025,719.932 880.239,719.932 880.239,715.023 893.025,715.023 893.025,705.262 899.417,705.262 
					899.417,686.149 905.811,686.149 905.811,681.241 893.025,681.241 893.025,676.333 				"/>
				<polygon clip-path="url(#SVGID_8_)" fill="#374F66" points="893.024,928.771 902.613,928.771 902.613,918.829 701.254,918.829 
					701.254,928.771 691.664,928.771 691.664,938.533 704.45,938.533 704.45,943.442 905.81,943.442 905.81,938.533 
					893.024,938.533 				"/>
				<polygon clip-path="url(#SVGID_8_)" fill="#374F66" points="899.416,617.4 899.416,637.051 893.024,637.051 893.024,646.811 
					880.238,646.811 880.238,651.722 678.878,651.722 678.878,646.811 691.664,646.811 691.664,637.051 698.057,637.051 
					698.057,617.4 691.664,617.4 691.664,597.514 685.273,597.514 685.273,588.236 886.634,588.236 886.634,597.514 
					893.024,597.514 893.024,617.4 				"/>
				<polyline clip-path="url(#SVGID_8_)" fill="#374F66" points="152.914,651.721 152.914,661.662 143.325,661.662 143.325,671.425 
					156.111,671.425 156.111,676.333 143.325,676.333 143.325,681.241 156.111,681.241 156.111,686.149 149.718,686.149 
					149.718,705.262 143.325,705.262 143.325,715.023 130.54,715.023 130.54,719.932 143.325,719.932 143.325,724.839 
					156.111,724.839 156.111,729.748 152.914,729.748 152.914,750.657 146.521,750.657 146.521,755.565 149.718,755.565 
					149.718,765.507 156.111,765.507 156.111,775.629 146.521,775.629 146.521,780.537 143.325,780.537 143.325,785.445 
					156.111,785.445 156.111,790.354 152.914,790.354 152.914,800.296 143.325,800.296 143.325,810.059 156.111,810.059 
					156.111,814.966 143.325,814.966 143.325,824.729 130.54,824.729 130.54,829.638 149.718,829.638 149.718,848.748 
					143.325,848.748 143.325,858.69 149.718,858.69 149.718,878.341 143.325,878.341 143.325,888.104 130.54,888.104 
					130.54,893.012 152.914,893.012 152.914,913.92 146.521,913.92 146.521,918.829 				"/>
				<polyline clip-path="url(#SVGID_8_)" fill="#374F66" points="152.914,918.829 152.914,928.771 143.324,928.771 143.324,938.533 
					156.11,938.533 156.11,943.442 				"/>
				<polyline clip-path="url(#SVGID_8_)" fill="#374F66" points="140.129,296.086 140.129,300.994 133.736,300.994 133.736,321.903 
					156.11,321.903 156.11,326.811 143.325,326.811 143.325,336.574 136.932,336.574 136.932,356.224 143.325,356.224 
					143.325,366.166 136.932,366.166 136.932,385.277 156.11,385.277 156.11,390.186 143.325,390.186 143.325,399.948 
					130.539,399.948 130.539,404.855 143.325,404.855 143.325,414.619 133.736,414.619 133.736,424.561 130.539,424.561 
					130.539,429.469 143.325,429.469 143.325,434.376 140.129,434.376 140.129,439.285 130.539,439.285 130.539,449.407 
					136.932,449.407 136.932,459.35 140.129,459.35 140.129,464.258 133.736,464.258 133.736,485.167 130.539,485.167 
					130.539,490.074 143.325,490.074 143.325,494.982 156.11,494.982 156.11,499.891 143.325,499.891 143.325,509.653 
					136.932,509.653 136.932,528.765 130.539,528.765 130.539,533.673 143.325,533.673 143.325,538.581 130.539,538.581 
					130.539,543.489 143.325,543.489 143.325,553.252 133.736,553.252 133.736,563.193 156.11,563.193 156.11,568.102 
					143.325,568.102 143.325,577.864 136.932,577.864 136.932,597.515 143.325,597.515 143.325,607.457 143.325,617.399 
					149.718,617.399 149.718,637.05 143.325,637.05 143.325,646.812 130.54,646.812 130.54,651.721 				"/>
				<polyline clip-path="url(#SVGID_8_)" fill="#374F66" points="130.54,271.472 130.54,276.381 143.325,276.381 143.325,286.143 
					133.736,286.143 133.736,296.085 				"/>
				<polyline clip-path="url(#SVGID_8_)" fill="#374F66" points="718.091,642.418 718.091,654.742 727.744,654.742 727.744,666.842 
					714.87,666.842 714.87,672.924 727.744,672.924 727.744,679.01 714.87,679.01 714.87,685.092 721.307,685.092 721.307,708.782 
					727.744,708.782 727.744,720.882 740.618,720.882 740.618,726.968 727.744,726.968 727.744,733.05 714.87,733.05 
					714.87,739.132 718.091,739.132 718.091,765.051 724.527,765.051 724.527,771.133 721.307,771.133 721.307,783.458 
					714.87,783.458 714.87,796.005 724.527,796.005 724.527,802.087 727.744,802.087 727.744,808.173 714.87,808.173 
					714.87,814.255 718.091,814.255 718.091,826.579 727.744,826.579 727.744,838.679 714.87,838.679 714.87,844.765 
					727.744,844.765 727.744,856.864 740.618,856.864 740.618,862.946 721.307,862.946 721.307,886.637 727.744,886.637 
					727.744,898.958 721.307,898.958 721.307,923.316 727.744,923.316 727.744,935.417 740.618,935.417 740.618,941.503 
					718.091,941.503 718.091,941.991 				"/>
				<polyline clip-path="url(#SVGID_8_)" fill="#374F66" points="730.963,375.299 730.963,379.101 740.616,379.101 740.616,391.649 
					734.182,391.649 734.182,403.973 730.963,403.973 730.963,410.057 737.398,410.057 737.398,435.972 740.616,435.972 
					740.616,442.055 727.742,442.055 727.742,448.139 714.869,448.139 714.869,454.223 727.742,454.223 727.742,466.324 
					734.182,466.324 734.182,490.011 740.616,490.011 740.616,496.098 727.742,496.098 727.742,502.179 740.616,502.179 
					740.616,508.266 727.742,508.266 727.742,520.364 737.398,520.364 737.398,532.688 714.869,532.688 714.869,538.772 
					727.742,538.772 727.742,550.872 734.182,550.872 734.182,575.231 727.742,575.231 727.742,599.877 721.308,599.877 
					721.308,624.232 727.742,624.232 727.742,636.333 740.616,636.333 740.616,642.417 				"/>
			</g>
		</g>
		<g opacity="0.25" clip-path="url(#SVGID_4_)">
			<g>
				<defs>
					<rect id="SVGID_9_" x="749.974" y="159.371" width="114.831" height="146.66"/>
				</defs>
				<clipPath id="SVGID_10_">
					<use xlink:href="#SVGID_9_"  overflow="visible"/>
				</clipPath>
			</g>
		</g>
		<g opacity="0.25" clip-path="url(#SVGID_4_)">
			<g>
				<defs>
					<rect id="SVGID_11_" x="109.693" y="563.705" width="146.739" height="77.538"/>
				</defs>
				<clipPath id="SVGID_12_">
					<use xlink:href="#SVGID_11_"  overflow="visible"/>
				</clipPath>
			</g>
		</g>
		<g opacity="0.25" clip-path="url(#SVGID_4_)">
			<g>
				<defs>
					<polyline id="SVGID_13_" points="753.092,552.674 889.29,552.674 889.29,469.037 					"/>
				</defs>
				<clipPath id="SVGID_14_">
					<use xlink:href="#SVGID_13_"  overflow="visible"/>
				</clipPath>
			</g>
		</g>
		<path clip-path="url(#SVGID_4_)" fill="#98A8B3" d="M714.36,98.815l-44.941,35.74l4.711,5.202
			c31.795,35.111,80.902,48.888,126.321,35.441l43.997-55.539l-13.362,5.319C790.503,141.136,744.164,130.749,714.36,98.815z"/>
		<path clip-path="url(#SVGID_4_)" fill="#C3D1D8" d="M726.262,58.142l-51.057,26.272l3.604,6.023
			c24.324,40.645,69.793,63.749,116.965,59.434l53.997-45.876l-14.143,2.607C792.671,114.521,749.254,95.283,726.262,58.142z"/>
		<path clip-path="url(#SVGID_4_)" fill="#E8F7ED" d="M601.959,839.18l8.604-2.57l1.574,4.063"/>
		<path clip-path="url(#SVGID_4_)" fill="#E8F7ED" d="M277.567,703.641l-5.628-1.24l0.822-2.921l11.354,1.818"/>
		<path clip-path="url(#SVGID_4_)" fill="#28323C" d="M603.323,589.685"/>
		<path clip-path="url(#SVGID_4_)" fill="#28323C" d="M603.323,589.685"/>
		<path clip-path="url(#SVGID_4_)" fill="#0C0C0C" d="M602.616,112.031"/>
		<path clip-path="url(#SVGID_4_)" fill="#292B2A" d="M624.891,82.074"/>
		<path clip-path="url(#SVGID_4_)" fill="#292B2A" d="M464.61,0"/>
		<path clip-path="url(#SVGID_4_)" fill="#0C0C0C" d="M624.891,82.077"/>
		<path clip-path="url(#SVGID_4_)" fill="#E8F7ED" d="M694.168,659.802L694.168,659.802c64.527-15.664,126.831,32.83,127.484,99.229
			l0.094,9.601l62.188-57.615c-19.942-60.587-85.261-93.5-145.821-73.478l-2.333,0.771L694.168,659.802z"/>
		<path clip-path="url(#SVGID_4_)" fill="#E8F7ED" d="M152.001,262.207l-45.135-86.463C43.357,188.635-1.701,245.303,0.05,310.083
			l0.234,8.677l39.697,51.117l2.349-17.532C49.585,298.185,97.46,258.835,152.001,262.207z"/>
		<path clip-path="url(#SVGID_4_)" fill="#C3D1D8" d="M196.181,631.303l13.814,61.071c-25.16,44.478-72.307,71.977-123.408,71.977
			H66.769l-6.544-90.153c43.245,22.252,96.235,10.067,125.415-28.84L196.181,631.303z"/>
		<path clip-path="url(#SVGID_4_)" fill="#E8F7ED" d="M732.36,44.687l-51.057,26.272l3.605,6.023
			c24.323,40.645,69.793,63.749,116.964,59.434l53.998-45.876l-14.144,2.607C798.77,101.066,755.353,81.828,732.36,44.687z"/>
		<g opacity="0.25" clip-path="url(#SVGID_4_)">
			<g>
				<defs>
					<rect id="SVGID_15_" x="118.38" y="30.588" width="144.659" height="71.369"/>
				</defs>
				<clipPath id="SVGID_16_">
					<use xlink:href="#SVGID_15_"  overflow="visible"/>
				</clipPath>
			</g>
		</g>
		<path clip-path="url(#SVGID_4_)" fill="#E8F7ED" d="M183.535,618.656l13.814,61.071c-25.16,44.479-72.307,71.978-123.408,71.978
			H54.123l-6.544-90.153c43.245,22.252,96.235,10.066,125.415-28.84L183.535,618.656z"/>
	</g>
</g>
</svg>
