<?xml version="1.0" encoding="utf-8"?>
<!-- Generator: Adobe Illustrator 16.0.0, SVG Export Plug-In . SVG Version: 6.00 Build 0)  -->
<!DOCTYPE svg PUBLIC "-//W3C//DTD SVG 1.1//EN" "http://www.w3.org/Graphics/SVG/1.1/DTD/svg11.dtd">
<svg version="1.1" id="Layer_1" xmlns="http://www.w3.org/2000/svg" xmlns:xlink="http://www.w3.org/1999/xlink" x="0px" y="0px"
	 width="502.898px" height="277.609px" viewBox="0 0 502.898 277.609" enable-background="new 0 0 502.898 277.609"
	 xml:space="preserve">
<g>
	<path fill="#293B4D" d="M262.859,0c-16.567,0-30,13.434-30,30c0,16.569,13.432,30,30,30c16.568,0,30-13.431,30-30
		C292.859,13.432,279.428,0,262.859,0z M262.859,56.309c-14.476,0-26.25-11.834-26.25-26.311c0-14.474,11.775-26.25,26.25-26.25
		s26.25,11.776,26.25,26.25C289.109,44.475,277.334,56.309,262.859,56.309z M264.734,29.239V11.25c0-1.035-0.84-1.875-1.875-1.875
		s-1.875,0.84-1.875,1.875V30c0,0.532,0.224,1.009,0.578,1.352c0.029,0.034,0.056,0.074,0.09,0.108l9.279,9.28
		c0.731,0.733,1.92,0.733,2.651,0c0.729-0.731,0.729-1.919,0-2.651L264.734,29.239z M126.895,113.809
		c-0.613-2.116-4.643-2.559-4.643-2.559l-17.827-2.892c3.852-5.373,3.305-13.576,2.053-17.899l-2.607-9
		c-1.727-5.961-11.902-10.208-19.854-7.902c-7.953,2.305-14.293,11.336-12.566,17.297l2.608,9
		c1.139,3.933,5.239,11.369,11.447,13.953l-13.655,12.047c0,0-3.135,2.646-2.556,4.643l1.565,5.404
		c0.577,1.989,2.655,3.133,4.643,2.558l50.401-14.602c1.989-0.576,3.133-2.654,2.557-4.645L126.895,113.809z M74.461,134.856
		l-1.059-3.654c-0.415-1.432,0.53-2.192,0.901-2.515l13.655-12.046c0.983-0.851,1.455-2.149,1.249-3.433s-1.062-2.367-2.261-2.866
		c-4.612-1.92-8.268-8.019-9.287-11.532l-2.608-9.001c-1.09-3.765,3.945-10.896,10.007-12.651c6.116-1.771,14.094,1.5,15.208,5.346
		l2.607,9c1.003,3.464,1.483,10.511-1.499,14.671c-0.76,1.063-0.915,2.442-0.406,3.646c0.509,1.205,1.607,2.055,2.899,2.249
		l17.827,2.891c0.139,0.021,1.585-0.146,2.144,1.78l1.021,3.515L74.461,134.856z M424.068,95.916
		c1.959,5.479,6.239,17.269,6.524,18.019c0.479,1.231,1.377,1.503,1.869,1.554c0.08,0.01,0.164,0.013,0.244,0.013
		c0.74,0,1.51-0.354,2.139-0.996c0,0,2.713-2.933,3.867-4.357c1.154-1.429,1.109-2.646,1.086-3.221
		c-0.008-0.396-1.096-18.448-1.498-25.5l12.361-12.586c4.379-4.462,3.684-9.839,2.057-11.491c-0.723-0.735-2.176-1.292-3.953-1.292
		c-2.219,0-4.94,0.866-7.375,3.346l-12.356,12.582c-6.961-0.448-24.789-1.649-25.23-1.662c-0.078-0.004-0.176-0.008-0.285-0.008
		c-0.602,0-1.643,0.118-2.823,1.111c-1.39,1.171-4.283,3.941-4.283,3.941c-0.699,0.713-1.053,1.597-0.969,2.427
		c0.051,0.503,0.317,1.417,1.528,1.899c0.734,0.293,12.437,4.75,17.836,6.771l-7.379,7.75c-0.326,0.01-0.729,0.013-1.188,0.013
		c-2.25,0-5.738-0.074-7.135-0.074c-0.187,0-0.335,0-0.438,0.004c-0.426,0.013-1.307-0.199-3.629,1.777l-0.166,0.155
		c-0.697,0.709-0.859,1.417-0.875,1.886c-0.014,0.479,0.113,1.176,0.797,1.732c0.41,0.338,5.682,3.775,10.006,6.436
		c1.037,1.722,5.808,9.438,6.056,9.856c0.362,0.625,0.957,0.981,1.67,1.004h0.059c0.691,0,1.402-0.35,2.096-1.036
		c1.968-2.341,1.695-3.311,1.705-3.718c0.031-1.274-0.021-6.687,0.023-8.832L424.068,95.916z M398.814,97.835
		c0.028-0.019,0.059,0.018,0.084,0.056C398.871,97.873,398.84,97.853,398.814,97.835z M413.75,100.716l-1.066,1.085l-0.03,1.535
		c-0.027,1.227-0.021,3.422-0.019,5.36c0.002,1.206,0.006,2.29,0,2.995c-0.098-0.16-0.19-0.313-0.297-0.481
		c-1.545-2.51-3.684-5.979-4.336-7.063l-0.477-0.793l-0.783-0.482c-2.748-1.688-5.771-3.625-7.711-4.894h0.071
		c0.605,0,1.607,0.013,2.73,0.028c1.467,0.021,3.131,0.047,4.406,0.047c0.485,0,0.922-0.006,1.27-0.013l1.508-0.036l1.066-1.084
		l7.379-7.75l4.152-4.227l-5.515-2.065c-4.141-1.551-12.073-4.566-15.786-5.985c0.95-0.895,2.1-1.953,2.77-2.519
		c0.188-0.157,0.332-0.235,0.434-0.235l0.134,0.004c0.411,0.021,5.555,0.36,10.524,0.69c5.277,0.354,11.234,0.747,14.621,0.965
		l1.691,0.108l1.198-1.221l12.357-12.582c1.904-1.938,3.773-2.228,4.721-2.228c0.611,0,1.043,0.116,1.269,0.204
		c0.27,0.73,0.631,3.349-2.027,6.055l-12.358,12.586l-1.191,1.214l0.096,1.713c0.207,3.583,0.588,10.003,0.916,15.507
		c0.289,4.899,0.564,9.526,0.584,9.92c0.008,0.271,0.015,0.334-0.233,0.639c-0.556,0.687-1.591,1.849-2.459,2.812
		c-1.354-3.706-4.189-11.535-5.761-15.916l-2.014-5.64l-4.168,4.243L413.75,100.716z M55.34,210.011l-20.49-5.491l-17.862,10.313
		c-1.793,1.035-2.408,3.329-1.373,5.123l3.248-1.876l14.614-8.437l7.5,12.988l12.991-7.5l15,25.98l-11.366,6.563l1.875,3.247
		l11.366-6.563c1.793-1.035,2.408-3.329,1.373-5.122L55.34,210.011z M42.35,217.51l-4.849-8.396l13.245,3.55L42.35,217.51z
		 M41.229,226.818l-20.491-5.492L2.875,231.639c-1.793,1.034-2.408,3.33-1.373,5.123l22.5,38.972
		c1.036,1.794,3.329,2.407,5.123,1.372l27.604-15.938c1.794-1.035,2.408-3.328,1.373-5.122L41.229,226.818z M36.633,229.47
		l-8.396,4.848l-4.848-8.397L36.633,229.47z M27.251,273.858l-22.5-38.972l14.614-8.438l7.5,12.989l12.99-7.5l15,25.979
		L27.251,273.858z M459.322,210.835l-11.25-5.67c-0.863-0.435-1.935-0.072-2.394,0.813l-16.59,31.944
		c-0.457,0.885-0.131,1.949,0.732,2.386l11.252,5.669c0.86,0.436,1.932,0.07,2.389-0.813l16.59-31.943
		C460.512,212.336,460.186,211.27,459.322,210.835z M441.172,241.994l-8.131-4.097l14.932-28.751l8.129,4.096L441.172,241.994z
		 M472.148,229.28l-11.332-5.71c-0.863-0.438-1.933-0.072-2.392,0.811l-11.658,22.449c-0.459,0.882-0.131,1.948,0.732,2.383
		l11.332,5.711c0.863,0.438,1.932,0.072,2.391-0.811l11.658-22.449C473.338,230.781,473.012,229.715,472.148,229.28z
		 M458.93,250.942l-8.211-4.138l10-19.256l8.211,4.139L458.93,250.942z M502.959,212.672l-11.115-5.6
		c-0.86-0.438-1.932-0.073-2.389,0.81l-24.885,47.919c-0.459,0.885-0.131,1.949,0.729,2.386l11.115,5.601
		c0.861,0.437,1.932,0.072,2.391-0.811l24.886-47.919C504.15,214.173,503.822,213.107,502.959,212.672z M476.514,259.804
		l-7.989-4.027l23.225-44.724l7.992,4.025L476.514,259.804z"/>
</g>
</svg>
